<svg width="18" height="16" viewBox="0 0 18 16" fill="none" xmlns="http://www.w3.org/2000/svg">
<path d="M1.88201 8.95611L7.50201 15.3071C7.68968 15.5193 7.92027 15.6891 8.17851 15.8055C8.43676 15.9218 8.71677 15.982 9.00001 15.982C9.28325 15.982 9.56326 15.9218 9.82151 15.8055C10.0798 15.6891 10.3103 15.5193 10.498 15.3071L16.118 8.95611C17.791 7.06511 18.66 4.68711 17.403 2.42011C15.951 -0.199888 13.29 -0.735888 10.977 1.02411C10.3385 1.51971 9.74733 2.07341 9.21101 2.67811C9.18438 2.70767 9.15184 2.73131 9.11549 2.74748C9.07914 2.76366 9.0398 2.77202 9.00001 2.77202C8.96022 2.77202 8.92088 2.76366 8.88453 2.74748C8.84819 2.73131 8.81564 2.70767 8.78901 2.67811C8.2527 2.07341 7.6615 1.51971 7.02301 1.02411C4.71001 -0.735888 2.04901 -0.199888 0.59701 2.42011C-0.65999 4.68711 0.20901 7.06511 1.88201 8.95611Z" fill="#CF215B"/>
</svg>
