<svg width="20" height="18" viewBox="0 0 20 18" fill="none" xmlns="http://www.w3.org/2000/svg">
<path d="M2.88201 9.95611L8.50201 16.3071C8.68968 16.5193 8.92027 16.6891 9.17851 16.8055C9.43676 16.9218 9.71677 16.982 10 16.982C10.2833 16.982 10.5633 16.9218 10.8215 16.8055C11.0798 16.6891 11.3103 16.5193 11.498 16.3071L17.118 9.95611C18.791 8.06511 19.66 5.68711 18.403 3.42011C16.951 0.800112 14.29 0.264112 11.977 2.02411C11.3385 2.51971 10.7473 3.07341 10.211 3.67811C10.1844 3.70767 10.1518 3.73131 10.1155 3.74748C10.0791 3.76366 10.0398 3.77202 10 3.77202C9.96022 3.77202 9.92088 3.76366 9.88453 3.74748C9.84819 3.73131 9.81564 3.70767 9.78901 3.67811C9.2527 3.07341 8.6615 2.51971 8.02301 2.02411C5.71001 0.264112 3.04901 0.800112 1.59701 3.42011C0.34001 5.68711 1.20901 8.06511 2.88201 9.95611Z" stroke="#4F4F4F" stroke-linecap="round" stroke-linejoin="round"/>
</svg>
