<svg width="20" height="20" viewBox="0 0 20 20" fill="none" xmlns="http://www.w3.org/2000/svg">
<path d="M15.5013 11.7466L12.5013 10.2466C12.4126 10.2025 12.314 10.1826 12.2152 10.1888C12.1165 10.1951 12.0211 10.2273 11.9387 10.2822L10.4688 11.2619C9.72456 10.8809 9.1191 10.2754 8.73813 9.53125L9.71875 8.06219C9.77364 7.97985 9.80584 7.88448 9.8121 7.78572C9.81835 7.68696 9.79844 7.58829 9.75438 7.49969L8.25438 4.49969C8.20774 4.40583 8.1358 4.32687 8.04668 4.27171C7.95757 4.21655 7.85481 4.18738 7.75 4.1875C6.80517 4.1875 5.89903 4.56283 5.23093 5.23093C4.56283 5.89903 4.1875 6.80517 4.1875 7.75C4.18998 9.88755 5.04022 11.9368 6.55169 13.4483C8.06317 14.9598 10.1125 15.81 12.25 15.8125C13.1948 15.8125 14.101 15.4372 14.7691 14.7691C15.4372 14.101 15.8125 13.1948 15.8125 12.25C15.8125 12.1454 15.7834 12.043 15.7284 11.954C15.6735 11.8651 15.5948 11.7933 15.5013 11.7466ZM12.25 14.6875C10.4107 14.6853 8.64746 13.9536 7.34691 12.6531C6.04636 11.3525 5.31473 9.58925 5.3125 7.75C5.31255 7.16172 5.52536 6.5933 5.91166 6.14962C6.29797 5.70594 6.83169 5.41694 7.41438 5.33594L8.60125 7.70969L7.62719 9.17031C7.57601 9.24735 7.54461 9.33582 7.53578 9.42788C7.52695 9.51994 7.54096 9.61277 7.57656 9.69812C8.09381 10.9279 9.0721 11.9062 10.3019 12.4234C10.3872 12.459 10.4801 12.473 10.5721 12.4642C10.6642 12.4554 10.7527 12.424 10.8297 12.3728L12.2903 11.3988L14.6641 12.5856C14.5831 13.1683 14.2941 13.702 13.8504 14.0883C13.4067 14.4746 12.8383 14.6874 12.25 14.6875ZM10 0.4375C8.3423 0.437152 6.71298 0.867745 5.2719 1.68703C3.83081 2.50632 2.62746 3.68616 1.77989 5.11081C0.932331 6.53545 0.469675 8.15595 0.437316 9.81334C0.404957 11.4707 0.804006 13.108 1.59531 14.5647L0.505939 17.8337C0.428817 18.065 0.417625 18.3132 0.473617 18.5504C0.529609 18.7877 0.650572 19.0047 0.82295 19.1771C0.995327 19.3494 1.21231 19.4704 1.44957 19.5264C1.68683 19.5824 1.93499 19.5712 2.16625 19.4941L5.43531 18.4047C6.71498 19.0991 8.13633 19.4922 9.59098 19.5539C11.0456 19.6156 12.4952 19.3444 13.8291 18.7608C15.1629 18.1772 16.346 17.2968 17.2879 16.1866C18.2299 15.0764 18.9059 13.7657 19.2644 12.3546C19.6229 10.9435 19.6544 9.46913 19.3566 8.04396C19.0588 6.61879 18.4395 5.28044 17.5459 4.13097C16.6523 2.98149 15.508 2.05125 14.2003 1.41117C12.8926 0.771083 11.456 0.438063 10 0.4375ZM10 18.4375C8.51681 18.4379 7.05974 18.0472 5.77563 17.305C5.69002 17.2558 5.59312 17.2296 5.49438 17.2291C5.43385 17.2294 5.37375 17.2392 5.31625 17.2581L1.81094 18.4263C1.7779 18.4373 1.74245 18.4389 1.70856 18.4309C1.67466 18.4229 1.64366 18.4056 1.61904 18.381C1.59441 18.3563 1.57713 18.3253 1.56913 18.2914C1.56113 18.2576 1.56273 18.2221 1.57375 18.1891L2.74188 14.6875C2.76715 14.6118 2.77604 14.5317 2.76796 14.4523C2.75988 14.3729 2.73501 14.2962 2.695 14.2272C1.7643 12.6195 1.3902 10.7495 1.63074 8.90749C1.87128 7.06544 2.71301 5.35428 4.02534 4.03945C5.33767 2.72463 7.04724 1.87965 8.88882 1.63562C10.7304 1.39159 12.601 1.76213 14.2105 2.68978C15.82 3.61742 17.0784 5.05031 17.7904 6.76612C18.5024 8.48194 18.6282 10.3848 18.1484 12.1794C17.6685 13.9741 16.6098 15.5602 15.1365 16.6917C13.6632 17.8232 11.8577 18.4369 10 18.4375Z" fill="#4F4F4F"/>
</svg>
