<svg width="18" height="16" viewBox="0 0 18 16" fill="none" xmlns="http://www.w3.org/2000/svg">
<path d="M1.88201 8.95599L7.50201 15.307C7.68968 15.5191 7.92027 15.689 8.17851 15.8053C8.43676 15.9217 8.71677 15.9818 9.00001 15.9818C9.28325 15.9818 9.56326 15.9217 9.82151 15.8053C10.0798 15.689 10.3103 15.5191 10.498 15.307L16.118 8.95599C17.791 7.06499 18.66 4.68699 17.403 2.41999C15.951 -0.200011 13.29 -0.736011 10.977 1.02399C10.3385 1.51959 9.74733 2.07329 9.21101 2.67799C9.18438 2.70755 9.15184 2.73118 9.11549 2.74736C9.07914 2.76354 9.0398 2.7719 9.00001 2.7719C8.96022 2.7719 8.92088 2.76354 8.88453 2.74736C8.84819 2.73118 8.81564 2.70755 8.78901 2.67799C8.2527 2.07329 7.6615 1.51959 7.02301 1.02399C4.71001 -0.736011 2.04901 -0.200011 0.59701 2.41999C-0.65999 4.68699 0.20901 7.06499 1.88201 8.95599Z" fill="#CF215B"/>
</svg>
